<?xml version="1.0" encoding="utf-8"?>
<!-- Generator: Adobe Illustrator 20.0.0, SVG Export Plug-In . SVG Version: 6.00 Build 0)  -->
<svg version="1.1" id="Capa_1" xmlns="http://www.w3.org/2000/svg" xmlns:xlink="http://www.w3.org/1999/xlink" x="0px" y="0px"
	 viewBox="0 0 213.9 36.8" style="enable-background:new 0 0 213.9 36.8;" xml:space="preserve">
<style type="text/css">
	.st0{fill:#F95C33;}
	.st1{fill:#4F5D75;}
</style>
<g>
	<g>
		<path class="st0" d="M53.2,20l-3,6.8l1.8,4.9l-5.1,0l2.5-6.9l3-6.7l5.3-13.4L59.6,0h-6.1h-8.1h-6.1l1.8,4.6l5.3,13.4l-6.3,16
			l-0.9,2.2l0,0l0,0h5.9l0,0l14.3,0l0,0h0L53.2,20z M51.9,4.6l-2.4,6.6l-2.4-6.6H51.9z"/>
	</g>
	<g>
		<path class="st0" d="M14.9,36.4H0V0.1h5.5v30.9h9.4V36.4z"/>
		<path class="st0" d="M18.7,36.4V0h15.6v5.5H24.2v9.9h7.4V21h-7.4v9.9h10.1v5.5H18.7z"/>
	</g>
	<g>
		<path class="st1" d="M63.3,0.4h17.5v5.1h-5.9v30.8h-5.6V5.5h-5.9V0.4z"/>
		<path class="st1" d="M95.1,36.3c-0.1-0.2-0.1-0.5-0.2-0.7c-0.1-0.2-0.1-0.5-0.2-0.8c-0.1-0.3-0.1-0.7-0.1-1.2c0-0.5,0-1.1,0-1.8
			v-5.6c0-1.7-0.3-2.9-0.9-3.5c-0.6-0.7-1.5-1-2.8-1h-2v14.6h-5.6V0.4h8.5c2.9,0,5.1,0.7,6.4,2.1c1.3,1.4,2,3.4,2,6.2v2.8
			c0,3.7-1.2,6.1-3.7,7.3c1.4,0.6,2.4,1.5,3,2.8c0.5,1.3,0.8,2.9,0.8,4.8V32c0,0.9,0,1.7,0.1,2.3c0.1,0.7,0.2,1.3,0.5,2H95.1z
			 M88.9,5.5v11h2.2c1.1,0,1.9-0.3,2.5-0.8c0.6-0.5,0.9-1.5,0.9-3V9.2c0-1.3-0.2-2.2-0.7-2.8c-0.5-0.6-1.2-0.9-2.2-0.9H88.9z"/>
		<path class="st1" d="M122.2,36.3h-5.7l-1-6.5h-6.9l-1,6.5h-5.2l5.8-35.9h8.3L122.2,36.3z M109.3,25h5.4L112,6.8L109.3,25z"/>
		<path class="st1" d="M141.2,22.9v4.8c0,2.9-0.7,5.1-2.1,6.7c-1.4,1.6-3.5,2.3-6.3,2.3s-4.9-0.8-6.3-2.3s-2.1-3.8-2.1-6.7V9
			c0-2.9,0.7-5.1,2.1-6.7c1.4-1.6,3.5-2.3,6.3-2.3s4.9,0.8,6.3,2.3c1.4,1.6,2.1,3.8,2.1,6.7v3.5h-5.3V8.7c0-1.3-0.3-2.2-0.8-2.7
			c-0.5-0.5-1.2-0.8-2.1-0.8c-0.9,0-1.6,0.3-2.1,0.8c-0.5,0.5-0.8,1.4-0.8,2.7v19.4c0,1.3,0.3,2.2,0.8,2.7c0.5,0.5,1.2,0.8,2.1,0.8
			c0.9,0,1.6-0.3,2.1-0.8c0.5-0.5,0.8-1.4,0.8-2.7v-5.1H141.2z"/>
		<path class="st1" d="M152,22l-1.7,3.3v11h-5.6V0.4h5.6v15.7l7.4-15.7h5.6l-7.9,16l7.9,19.9h-5.8L152,22z"/>
		<path class="st1" d="M165.8,0.4h5.6v35.9h-5.6V0.4z"/>
		<path class="st1" d="M180.6,10.3v26h-5.1V0.4h7.1l5.8,21.5V0.4h5v35.9h-5.8L180.6,10.3z"/>
		<path class="st1" d="M206,16.3h7.9v11.4c0,2.9-0.7,5.1-2.1,6.7c-1.4,1.6-3.5,2.3-6.3,2.3s-4.9-0.8-6.3-2.3s-2.1-3.8-2.1-6.7V9
			c0-2.9,0.7-5.1,2.1-6.7c1.4-1.6,3.5-2.3,6.3-2.3s4.9,0.8,6.3,2.3c1.4,1.6,2.1,3.8,2.1,6.7v3.5h-5.3V8.7c0-1.3-0.3-2.2-0.8-2.7
			c-0.5-0.5-1.2-0.8-2.1-0.8c-0.9,0-1.6,0.3-2.1,0.8c-0.5,0.5-0.8,1.4-0.8,2.7v19.4c0,1.3,0.3,2.2,0.8,2.7c0.5,0.5,1.2,0.8,2.1,0.8
			c0.9,0,1.6-0.3,2.1-0.8c0.5-0.5,0.8-1.4,0.8-2.7v-6.6H206V16.3z"/>
	</g>
</g>
</svg>
